<svg width="126" height="26" xmlns="http://www.w3.org/2000/svg" xmlns:xlink="http://www.w3.org/1999/xlink"><title>Logo - On white</title><desc>Created using Figma</desc><use xlink:href="#a" fill="#FFF"/><use xlink:href="#b" transform="translate(60)" fill="#FFF"/><defs><path id="a" fill-rule="evenodd" d="M4.738 16.966l.001 2.373v.59c.002 2.188.004 4.67-.001 5.254 0 .535-.261.793-.791.802-1.052.009-2.113.009-3.165 0-.54 0-.782-.258-.782-.802V.772C0 .246.233.016.763.016c.907 0 1.814-.004 2.72-.008h.003c2.164-.01 4.328-.02 6.492.026 4.42.093 7.707 3.344 7.902 7.72.102 2.33-.344 4.496-1.87 6.338-1.546 1.87-3.603 2.773-6.013 2.865-1.328.055-4.03.023-4.954.012l-.305-.003zm.018-3.878l1.457-.002c.95-.002 1.885-.004 2.825.002 1.2.01 2.178-.452 2.922-1.363 1.154-1.41 1.452-3.03.987-4.763-.53-1.972-2.038-3.077-4.086-3.077H4.766c-.01 3.086-.01 6.117-.01 9.203zm29.288 12.04c.242.59.624.921 1.312.866.429-.037 2.234-.009 2.7 0 .875 0 1.154-.415.791-1.207C35.165 16.751 31.485 8.712 27.808.67c-.204-.451-.484-.617-.968-.608-.465.01-.67.267-.847.645a11478.86 11478.86 0 0 1-5.688 12.3l-.217.47-.013.028-.334.723c-2.322 5.018-4.42 9.552-4.899 10.597-.344.736-.055 1.16.754 1.16h2.7c.81 0 1.07-.166 1.377-.903l.265-.626.147-.348c.377-.888.753-1.776 1.115-2.674.13-.322.288-.46.67-.46 3.22.018 6.43.009 9.65 0h.31c.343 0 .52.082.65.414.343.854.703 1.704 1.063 2.553l.01.022.027.065.025.059.44 1.04zm-10.834-8.07h7.279a2637.5 2637.5 0 0 1-3.677-8.023 1919.198 1919.198 0 0 0-3.602 8.023zM52.555.615a1577.302 1577.302 0 0 1-5.668 8.282c-.058-.08-.737-1.069-1.642-2.385A2530.28 2530.28 0 0 0 41.163.587c-.149-.212-.428-.479-.66-.488A58.53 58.53 0 0 0 36.685.08c-.512.01-.772.498-.568.967.042.107 2.317 3.495 4.624 6.93l.009.013c1.272 1.894 2.554 3.802 3.474 5.18.15.228.23.494.233.765.006 3.713.009 7.426.009 11.138 0 .682.223.912.912.912h2.839c.782 0 .996-.212.996-.977.003-3.633 0-7.268-.009-10.907a1.826 1.826 0 0 1 .335-1.105 4946.02 4946.02 0 0 0 7.95-11.626c.205-.295.372-.58.186-.94-.186-.368-.54-.368-.884-.368h-.503l-.406.003c-.752.004-1.506.007-2.256-.012-.484-.01-.8.157-1.07.562zM126 21.83c-.021 2.3-1.914 4.152-4.235 4.142-2.321-.01-4.197-1.878-4.198-4.179a4.21 4.21 0 0 1 4.217-4.154 4.217 4.217 0 0 1 2.989 1.224A4.147 4.147 0 0 1 126 21.83zm-.512.037c-.066 2.045-1.722 3.64-3.761 3.602a3.704 3.704 0 0 1-2.612-1.124 3.638 3.638 0 0 1-1.026-2.635c.037-1.999 1.731-3.592 3.797-3.555 2.001.036 3.658 1.74 3.602 3.712zm-3.016.295l.4.567c.24.338.474.67.708 1.008-.419.166-.652.037-.819-.285a2.682 2.682 0 0 0-.219-.343c-.063-.09-.127-.18-.181-.275-.326-.553-.791-.736-1.462-.57v1.51a7.49 7.49 0 0 0-.465.037v-3.565c.201 0 .401-.003.599-.005a19.25 19.25 0 0 1 1.364.014c.54.028.838.35.894.83.057.47-.176.828-.679 1.021a.541.541 0 0 1-.14.056zm-1.148-.393a35.042 35.042 0 0 0-.416-.003v-1.133c.135 0 .269-.002.401-.003.324-.004.639-.008.949.012.336.027.559.23.55.571-.01.314-.196.525-.522.544-.316.02-.632.016-.962.012z"/><path id="b" fill-rule="evenodd" d="M50.62 15.613c.13.249.242.47.354.683 1.49 2.78 2.98 5.564 4.47 8.35.093.144.165.3.213.463.112.425-.14.795-.577.804-1.303.018-2.607.009-3.91.009-.391 0-.512-.296-.642-.573-1.462-2.984-2.933-5.968-4.376-8.96-.177-.37-.382-.527-.81-.518a53.41 53.41 0 0 1-2.98 0c-.409-.01-.53.13-.53.536.01 2.836.01 5.663.01 8.499 0 .886-.131 1.016-1.015 1.016h-2.7c-.717 0-.912-.185-.912-.896V.869c0-.638.214-.86.856-.86 3.399 0 6.796-.018 10.194 0 3.798.02 6.898 2.486 7.569 6.116.717 3.862-.894 7.427-4.674 9.229a7.16 7.16 0 0 0-.54.259zm-8.704-3.501c.205 0 4.04-.01 5.809 0a3.094 3.094 0 0 0 1.9-.638c1.396-1.035 2.048-3.012 1.563-4.757-.512-1.857-1.87-2.892-3.798-2.892h-5.474v8.287zM4.701 3.825v7.27h8.695c.736 0 .95.213.95.924v2.032c0 .638-.223.86-.866.86H4.71v7.27h10.437c.8 0 .977.175.977.97v1.94c0 .692-.214.905-.912.905-4.404 0-14.03.01-14.43 0-.46-.008-.696-.183-.763-.566C.009 25.371 0 9.035 0 1.09 0 .168.158.02 1.07.02h14.002c.885 0 1.043.157 1.043 1.053V2.92c0 .72-.196.914-.94.914-3.287-.01-10.232-.01-10.474-.01zm14 9.154V.925c0-.757.168-.924.922-.924h14.244c.726 0 .912.186.912.888v2.078c0 .656-.186.85-.857.85h-9.915c-.679 0-.679 0-.679.665 0 2.032.01 4.064-.01 6.097 0 .406.122.517.532.517 2.68-.018 5.371-.01 8.052-.01.978 0 1.108.13 1.108 1.072v1.94c0 .583-.214.804-.819.804-1.415.01-6.992.01-8.379 0-.344 0-.493.065-.493.453.018 2.125.018 4.25 0 6.374 0 .378.14.452.493.452 3.324-.008 6.638-.008 9.962-.008.875 0 1.005.129 1.005 1.016v1.94c0 .655-.196.859-.848.859H19.688c-.829 0-.977-.148-.977-.961-.01-4.01-.013-8.025-.01-12.046z"/></defs></svg>