<svg width="474" height="120" viewBox="0 0 474 120" fill="none" xmlns="http://www.w3.org/2000/svg">
<path d="M435.812 87.5103L417.645 84.0162C417.257 88.4338 416.153 92.2514 414.342 94.5043C412.532 96.7572 409.247 97.9219 406.008 97.9219C403.234 98.001 400.543 96.9438 398.521 94.9808C396.505 93.0436 395.5 90.1299 395.503 86.2397V57.5577H429.549V34.3816H395.503V13.3171H370.789V85.8221C370.789 96.1396 373.706 104.412 379.54 110.639C385.373 116.867 394.061 119.986 405.603 119.998C415.453 119.998 423.901 117.186 429.805 111.557C432.18 109.289 434.206 106.658 435.812 103.757C438.345 99.0246 439.97 93.8318 440.6 88.4632L435.812 87.5103Z" fill="#F7F7F7"/>
<path d="M196.414 44.7854C192.369 37.3884 186.448 31.2711 179.289 27.0915C172.157 22.7779 163.852 20.6328 154.375 20.6563C145.038 20.6563 136.735 22.8014 129.467 27.0915C122.308 31.2711 116.387 37.3884 112.342 44.7854C108.193 52.2912 106.117 60.8029 106.113 70.3204C106.109 79.8379 108.178 88.3574 112.319 95.8789C116.371 103.259 122.291 109.359 129.444 113.526C136.709 117.839 145.012 119.996 154.352 119.996C163.841 119.996 172.146 117.851 179.266 113.561C186.432 109.388 192.361 103.275 196.414 95.8789C200.566 88.3731 202.642 79.8614 202.642 70.3439C202.642 60.8264 200.566 52.3069 196.414 44.7854ZM175.178 84.7026C173.224 88.707 170.277 92.1047 166.638 94.5495C162.917 96.7917 158.686 97.9731 154.378 97.9731C150.07 97.9731 145.839 96.7917 142.117 94.5495C138.478 92.1047 135.532 88.707 133.578 84.7026C131.498 80.4203 130.46 75.4262 130.463 69.7204C130.467 64.0146 131.505 59.0205 133.578 54.7382C135.455 50.68 138.418 47.2628 142.117 44.8913C145.839 42.6491 150.07 41.4677 154.378 41.4677C158.686 41.4677 162.917 42.6491 166.638 44.8913C170.337 47.2628 173.301 50.68 175.178 54.7382C177.258 59.0127 178.296 64.0067 178.292 69.7204C178.289 75.4341 177.251 80.4281 175.178 84.7026Z" fill="#F7F7F7"/>
<path d="M335.012 81.7612C333.703 86.7337 331.302 90.6944 327.81 93.6434C324.319 96.5924 319.519 98.0669 313.412 98.0669C309.404 98.0689 305.435 97.2492 301.735 95.6552C298.155 93.9571 295.068 91.3208 292.78 88.0082C290.575 84.5181 289.343 80.2279 289.085 75.1378H351.944C352.206 73.2633 352.396 71.3869 352.513 69.5084C352.77 67.5095 352.899 65.4955 352.901 63.4791C352.901 54.6322 351.084 47.0578 347.452 40.7559C344.033 34.4059 338.887 29.2315 332.65 25.8737C326.307 22.3953 318.849 20.6561 310.275 20.6561C301.063 20.6561 293.019 22.8679 286.141 27.2913C279.348 31.6229 273.778 37.7252 269.99 44.9852C266.228 52.3577 264.348 60.5929 264.348 69.6908C264.348 79.8867 266.424 88.8023 270.576 96.4375C274.63 103.845 280.636 109.911 287.895 113.931C295.308 117.974 303.749 119.996 313.219 119.996C324.374 119.996 333.519 117.316 340.654 111.955C347.923 106.59 353.047 99.3512 356.026 90.2376L335.012 81.7612ZM296.828 45.5852C300.699 42.7691 305.331 41.287 310.065 41.35C313.404 41.2645 316.722 41.9205 319.794 43.2735C322.457 44.2803 324.763 46.0949 326.41 48.4793C328.161 50.7908 329.121 53.6377 329.137 56.5733C329.124 56.9042 329.056 57.2303 328.938 57.538H289.415C290.713 52.2851 292.939 48.3028 296.828 45.6029V45.5852Z" fill="#F7F7F7"/>
<path d="M208.492 117.975L237.562 0H263.831L234.767 117.975H208.492Z" fill="#F7F7F7"/>
<path d="M26.2744 22.6633L51.3759 93.6154L77.8154 22.6633H104.09L66.5598 117.956H36.3856L0 22.6633H26.2744Z" fill="#F7F7F7"/>
<path d="M462.554 119.998C460.638 120.026 458.751 119.509 457.1 118.504C455.5 117.52 454.175 116.124 453.255 114.452C452.335 112.78 451.852 110.889 451.852 108.966C451.852 107.042 452.335 105.152 453.255 103.48C454.175 101.808 455.5 100.411 457.1 99.4276C458.766 98.4483 460.649 97.9333 462.565 97.9333C464.482 97.9333 466.365 98.4483 468.031 99.4276C469.62 100.394 470.938 101.77 471.857 103.422C472.775 105.114 473.257 107.022 473.257 108.963C473.257 110.903 472.775 112.811 471.857 114.504C470.945 116.154 469.635 117.533 468.054 118.504C466.39 119.52 464.486 120.037 462.554 119.998ZM462.554 117.398C464.013 117.425 465.45 117.032 466.704 116.263C467.926 115.51 468.937 114.44 469.636 113.16C470.335 111.88 470.698 110.433 470.69 108.963C470.713 107.48 470.351 106.017 469.642 104.728C468.94 103.473 467.936 102.428 466.727 101.692C465.467 100.938 464.037 100.538 462.581 100.533C461.124 100.528 459.692 100.917 458.426 101.663C457.23 102.406 456.235 103.45 455.534 104.698C454.447 106.627 454.141 108.922 454.683 111.083C455.224 113.245 456.57 115.097 458.426 116.239C459.674 117.006 461.102 117.403 462.554 117.386V117.398ZM462.634 114.322C461.714 114.302 460.816 114.035 460.026 113.547C459.237 113.06 458.584 112.368 458.131 111.541C457.678 110.714 457.442 109.779 457.445 108.829C457.448 107.879 457.69 106.946 458.147 106.122C458.591 105.34 459.233 104.7 460.003 104.269C460.771 103.827 461.636 103.598 462.514 103.604C463.612 103.567 464.693 103.886 465.606 104.516C466.495 105.204 467.089 106.223 467.262 107.357L465.11 108.016C465.025 107.371 464.72 106.779 464.251 106.345C463.777 105.923 463.168 105.697 462.543 105.71C461.831 105.72 461.148 106.005 460.63 106.51C460.163 106.943 459.834 107.512 459.685 108.141C459.535 108.771 459.573 109.432 459.792 110.039C460.011 110.646 460.402 111.171 460.914 111.546C461.426 111.92 462.035 112.127 462.662 112.139C463.047 112.169 463.433 112.112 463.795 111.973C464.157 111.834 464.485 111.616 464.757 111.333C465.229 110.785 465.529 110.102 465.617 109.375L467.689 110.163C467.424 111.373 466.78 112.458 465.856 113.251C464.934 113.981 463.795 114.356 462.634 114.31V114.322Z" fill="#F7F7F7"/>
</svg>
