<svg width="1600" height="1500" viewBox="0 0 1600 1500" fill="none" xmlns="http://www.w3.org/2000/svg">
<path d="M1002.35 593.291L1002.36 593.293L1060.22 657.427C1088.38 688.644 1097.67 732.554 1084.55 772.5L1057.61 854.569L1057.61 854.571L1030.99 936.75C1018.04 976.749 984.658 1006.75 943.506 1015.36L858.958 1033.06L858.956 1033.06L774.482 1051.1C733.366 1059.88 690.695 1045.97 662.659 1014.64L605.059 950.267L605.058 950.266L547.194 886.131C519.03 854.915 509.744 811.004 522.86 771.058L549.808 688.989L549.808 688.987L576.419 606.809C589.371 566.81 622.756 536.813 663.908 528.199L748.455 510.501L748.457 510.501L832.931 492.457C874.048 483.674 916.718 497.588 944.754 528.92L1002.35 593.291Z" fill="url(#paint0_linear_0_181)" stroke="url(#paint1_linear_0_181)"/>
<path opacity="0.2" d="M1175.72 415.394L1036.74 260.084C1003.08 222.457 951.832 205.748 902.455 216.295L698.643 259.83" stroke="#EB5BE5" stroke-width="6"/>
<path opacity="0.04" d="M1171.38 416.705L1171.39 416.714L1311 571.453C1344.1 608.142 1355.01 659.751 1339.6 706.699L1274.58 904.709L1274.58 904.72L1210.38 1102.99C1195.15 1150.01 1155.92 1185.26 1107.55 1195.39L903.56 1238.09L903.548 1238.09L699.736 1281.62C651.411 1291.95 601.26 1275.59 568.309 1238.77L429.336 1083.46L429.328 1083.45L289.719 928.71C256.617 892.021 245.704 840.412 261.12 793.463L326.136 595.454L326.139 595.442L390.343 397.168C405.565 350.157 444.803 314.901 493.17 304.777L697.159 262.078L697.171 262.075L900.983 218.54C949.308 208.217 999.459 224.57 1032.41 261.395L1171.38 416.705Z" stroke="#EB5BE5" stroke-width="6"/>
<path opacity="0.04" d="M1315.59 286.732L1315.6 286.736L1529.88 524.242C1563.34 561.33 1574.37 613.501 1558.79 660.961L1459 964.881L1459 964.887L1360.45 1269.21C1345.06 1316.74 1305.4 1352.38 1256.5 1362.61L943.406 1428.15L943.4 1428.15L630.573 1494.97C581.722 1505.41 531.025 1488.88 497.715 1451.65L284.408 1213.27L284.404 1213.26L70.1213 975.758C36.6592 938.67 25.627 886.499 41.2104 839.039L141.002 535.119L141.004 535.113L239.548 230.786C254.937 183.262 294.602 147.623 343.495 137.388L656.594 71.8503L656.6 71.8491L969.427 5.0274C1018.28 -5.40737 1068.97 11.1239 1102.28 48.3493L1315.59 286.732Z" stroke="#EB5BE5" stroke-width="3"/>
<path opacity="0.2" d="M1456.87 965.514L1358.32 1269.84C1342.77 1317.88 1302.68 1353.9 1253.26 1364.24L940.158 1429.78" stroke="#EB5BE5" stroke-width="3"/>
<path opacity="0.2" d="M439.689 1095.68L568.626 1238.57C600.112 1273.47 648.974 1292.56 694.695 1281.67V1281.67" stroke="#EB5BE5" stroke-width="6.58471"/>
<circle cx="1199" cy="1145" r="120" fill="#151515" stroke="#1A171A" stroke-width="6"/>
<path opacity="0.2" d="M1202 1265C1134.07 1265 1079 1209.93 1079 1142" stroke="#EB5BE5" stroke-width="6"/>
<circle cx="254" cy="865" r="120" fill="#151515" stroke="#1A171A" stroke-width="6"/>
<path opacity="0.2" d="M257 985C189.069 985 134 929.931 134 862" stroke="#EB5BE5" stroke-width="6"/>
<defs>
<linearGradient id="paint0_linear_0_181" x1="899.598" y1="477.705" x2="707.816" y2="1065.85" gradientUnits="userSpaceOnUse">
<stop stop-color="#101010"/>
<stop offset="0.662523" stop-color="#101010" stop-opacity="0"/>
</linearGradient>
<linearGradient id="paint1_linear_0_181" x1="899.598" y1="477.705" x2="707.816" y2="1065.85" gradientUnits="userSpaceOnUse">
<stop stop-color="white" stop-opacity="0.19"/>
<stop offset="0.619295" stop-color="#D8D8D8" stop-opacity="0"/>
</linearGradient>
</defs>
</svg>
