<svg width="1578" height="1585" viewBox="0 0 1578 1585" fill="none" xmlns="http://www.w3.org/2000/svg">
<path opacity="0.04" d="M1159.81 480.829L1159.82 480.839L1299.43 635.582C1332.46 672.194 1343.35 723.693 1327.96 770.542L1262.94 968.549L1262.94 968.562L1198.73 1166.83C1183.54 1213.75 1144.38 1248.93 1096.12 1259.03L892.127 1301.72L892.114 1301.72L688.3 1345.25C640.078 1355.55 590.034 1339.23 557.154 1302.48L418.185 1147.17L418.176 1147.16L278.572 992.418C245.541 955.805 234.653 904.306 250.037 857.457L315.058 659.45L315.063 659.437L379.271 461.165C394.463 414.253 433.619 379.074 481.883 368.973L685.873 326.279L685.886 326.276L889.7 282.747C937.922 272.448 987.966 288.768 1020.85 325.515L1159.81 480.829Z" stroke="#EB5BE5" stroke-width="6.58471"/>
<path opacity="0.2" d="M429.5 1160L558.433 1302.9C589.917 1337.8 638.779 1356.89 684.5 1346V1346" stroke="#EB5BE5" stroke-width="6.58471"/>
<path opacity="0.04" d="M1318.37 338.374L1318.38 338.379L1539.88 583.898C1573.3 620.949 1584.32 673.065 1568.76 720.475L1465.59 1034.64L1465.59 1034.65L1363.71 1349.23C1348.34 1396.7 1308.71 1432.3 1259.87 1442.53L936.215 1510.26L936.208 1510.27L612.832 1579.33C564.033 1589.75 513.389 1573.24 480.115 1536.05L259.624 1289.63L259.619 1289.62L38.1187 1044.1C4.69278 1007.05 -6.32637 954.934 9.24196 907.525L112.407 593.36L112.409 593.354L214.285 278.769C229.659 231.296 269.283 195.695 318.125 185.473L641.782 117.735L641.789 117.733L965.165 48.6679C1013.96 38.2454 1064.61 54.7608 1097.88 91.9481L1318.37 338.374Z" stroke="#EB5BE5" stroke-width="3.29235"/>
<path opacity="0.2" d="M112.498 594L213.424 279.607C228.92 231.336 269.18 195.128 318.818 184.82L642.998 117.5" stroke="#EB5BE5" stroke-width="3.29235"/>
<circle cx="253.521" cy="903.609" r="123.316" fill="#151515" stroke="#1A171A" stroke-width="6.3239"/>
<circle cx="348.891" cy="532.891" r="79.0165" fill="#151515" stroke="#1A171A" stroke-width="6.58471"/>
<circle cx="1204.55" cy="1123.29" r="82.0847" fill="#151515" stroke="#1A171A" stroke-width="6.02456"/>
<circle cx="1069.71" cy="82.7092" r="80.2511" fill="#151515" stroke="#1A171A" stroke-width="4.11544"/>
</svg>
