<svg width="1600" height="1903" viewBox="0 0 1600 1903" fill="none" xmlns="http://www.w3.org/2000/svg">
<path opacity="0.04" d="M1170.82 529.829L1170.82 529.839L1310.43 684.582C1343.46 721.194 1354.35 772.693 1338.96 819.542L1273.94 1017.55L1273.94 1017.56L1209.73 1215.83C1194.54 1262.75 1155.38 1297.93 1107.12 1308.03L903.127 1350.72L903.114 1350.72L699.3 1394.25C651.078 1404.55 601.034 1388.23 568.154 1351.48L429.185 1196.17L429.176 1196.16L289.572 1041.42C256.541 1004.81 245.653 953.306 261.037 906.457L326.058 708.45L326.063 708.437L390.272 510.165C405.463 463.253 444.619 428.074 492.883 417.973L696.873 375.279L696.886 375.276L900.7 331.747C948.922 321.448 998.966 337.768 1031.85 374.515L1170.82 529.829Z" stroke="#EB5BE5" stroke-width="6.58471"/>
<path opacity="0.2" d="M440.5 1209L569.433 1351.9C600.917 1386.8 649.779 1405.89 695.5 1395V1395" stroke="#EB5BE5" stroke-width="6.58471"/>
<path opacity="0.04" d="M1329.38 387.374L1329.38 387.379L1550.88 632.898C1584.31 669.949 1595.33 722.065 1579.76 769.475L1476.59 1083.64L1476.59 1083.65L1374.71 1398.23C1359.34 1445.7 1319.72 1481.3 1270.87 1491.53L947.217 1559.26L947.21 1559.27L623.834 1628.33C575.034 1638.75 524.391 1622.24 491.117 1585.05L270.625 1338.63L270.621 1338.62L49.1204 1093.1C15.6945 1056.05 4.67534 1003.93 20.2437 956.525L123.409 642.36L123.411 642.354L225.287 327.769C240.66 280.296 280.285 244.695 329.127 234.473L652.784 166.735L652.79 166.733L976.167 97.6679C1024.97 87.2454 1075.61 103.761 1108.88 140.948L1329.38 387.374Z" stroke="#EB5BE5" stroke-width="3.29235"/>
<path opacity="0.2" d="M123.5 643L224.426 328.607C239.922 280.336 280.182 244.128 329.82 233.82L654 166.5" stroke="#EB5BE5" stroke-width="3.29235"/>
</svg>
