<svg width="90" height="24" viewBox="0 0 90 24" fill="none" xmlns="http://www.w3.org/2000/svg">
<path fill-rule="evenodd" clip-rule="evenodd" d="M67.4775 24C66.6099 24 66.0986 23.0296 66.5911 22.3177L72.9698 13.0973C73.4162 12.452 73.4135 11.5982 72.963 10.9556L66.4653 1.68778C65.9666 0.976471 66.4772 0 67.3478 0H73.3723C73.7355 0 74.0743 0.182554 74.2732 0.485494L77.3553 5.17965C77.7829 5.83099 78.7423 5.82603 79.1631 5.17031L82.1639 0.494832C82.3618 0.186529 82.7037 0 83.0709 0H88.6368C89.5104 0 90.0203 0.98237 89.5156 1.69308L83.1509 10.6555C82.6913 11.3026 82.689 12.1676 83.1445 12.8177C83.7283 13.6506 84.3278 14.5078 84.9356 15.3768L84.9367 15.3784L84.9381 15.3803C86.548 17.6821 88.2156 20.0663 89.8003 22.3019C90.3052 23.0144 89.7947 24 88.9195 24H82.9654C82.6029 24 82.2648 23.8182 82.0657 23.5162L78.815 18.5859C78.3929 17.9456 77.455 17.9409 77.0343 18.5821C76.4874 19.4156 75.9022 20.3233 75.3283 21.2134L75.328 21.2138L75.3258 21.2171C74.8077 22.0208 74.2988 22.8099 73.836 23.5169C73.6381 23.8192 73.3004 24 72.9382 24H67.4775Z" fill="#DDDDDD"/>
<path fill-rule="evenodd" clip-rule="evenodd" d="M60.7102 24C61.2708 24 61.7252 23.5196 61.7252 22.9269V1.07311C61.7252 0.480446 61.2708 0 60.7102 0H55.7977C55.2371 0 54.7827 0.480446 54.7827 1.07311V22.9269C54.7827 23.5196 55.2371 24 55.7977 24H60.7102Z" fill="#DDDDDD"/>
<path fill-rule="evenodd" clip-rule="evenodd" d="M28.5273 10.6105C28.5273 4.7505 33.2745 0 39.1304 0C44.9864 0 49.7335 4.75049 49.7335 10.6105V22.9895C49.7335 23.5476 49.2814 24 48.7237 24H44.0533C43.4956 24 43.0435 23.5476 43.0435 22.9895V10.2316C43.0435 8.06895 41.2915 6.31579 39.1304 6.31579C36.9693 6.31579 35.2174 8.06895 35.2174 10.2316V22.9895C35.2174 23.5476 34.7653 24 34.2076 24H29.5372C28.9795 24 28.5273 23.5476 28.5273 22.9895V10.6105Z" fill="#DDDDDD"/>
<path fill-rule="evenodd" clip-rule="evenodd" d="M11.9916 17.6243C9.40249 17.6243 6.90425 15.7571 6.90425 11.9772C6.90425 8.1518 9.40249 6.37571 11.9916 6.37571C14.6261 6.37571 17.0789 8.1518 17.0789 11.9772C17.0789 15.8027 14.6261 17.6243 11.9916 17.6243ZM11.9916 0C5.26903 0 0 4.96395 0 11.9772C0 18.9905 5.26903 24 11.9916 24C18.7596 24 23.9832 18.9905 23.9832 11.9772C23.9832 4.96395 18.7596 0 11.9916 0Z" fill="#DDDDDD"/>
</svg>
