<svg width="1107" height="281" viewBox="0 0 1107 281" fill="none" xmlns="http://www.w3.org/2000/svg">
<path d="M598.188 64L467.673 143.71L447.912 174.019H385.862L405.623 143.71L319 64H410.053L463.671 118.129L555.167 64H598.188Z" fill="#DDDDDD"/>
<path d="M860.072 64L790.332 174.019H720.085L634.526 98.6753L586.767 174.019H555.949L625.689 64H704.777L784.435 134.705L829.255 64H860.072Z" fill="#DDDDDD"/>
<path d="M899.651 174.019H1073.11L1060.32 154.028H924.217L972.355 81.8064H1106.89L1093.73 64H898.39L855.711 129.866L899.651 174.019Z" fill="#DDDDDD"/>
<path d="M273.729 64H309.578L238.038 136.373L380 280H276.755L168.491 170.466L273.729 64Z" fill="#DDDDDD"/>
<path d="M206.491 104.456L99.2191 212.98L63.3896 213L136.963 138.569L0 0L103.248 0.00260664L206.491 104.456Z" fill="#DDDDDD"/>
</svg>
