<?xml version="1.0" standalone="no"?>
<!DOCTYPE svg PUBLIC "-//W3C//DTD SVG 20010904//EN"
 "http://www.w3.org/TR/2001/REC-SVG-20010904/DTD/svg10.dtd">
<svg version="1.0" xmlns="http://www.w3.org/2000/svg"
     width="550px" height="655px" viewBox="250 190 660 845"
     preserveAspectRatio="xMidYMid meet">
<g transform="translate(000.000000,1225.000000) scale(1,-1)"
fill="#000000" stroke="none">
    <path style="opacity:1" d="M 263.5,189.5 C 382.672,307.838 501.338,426.672 619.5,546C 528.706,637.794 437.54,729.294 346,820.5C 345.333,748.833 345.333,677.167 346,605.5C 365.681,585.986 385.181,566.32 404.5,546.5C 357.146,498.812 309.812,451.146 262.5,403.5C 262.167,331.998 262.501,260.665 263.5,189.5 Z"/>
    <path style="opacity:1" d="M 809.5,404.5 C 810.499,475.665 810.833,546.998 810.5,618.5C 791.188,638.146 771.855,657.813 752.5,677.5C 799.854,725.188 847.188,772.854 894.5,820.5C 894.833,892.002 894.499,963.335 893.5,1034.5C 774.188,915.854 655.188,796.854 536.5,677.5C 627.188,586.146 718.188,495.146 809.5,404.5 Z"/>
</g>
</svg>
