<svg width="482" height="474" viewBox="0 0 482 474" fill="none" xmlns="http://www.w3.org/2000/svg">
<path d="M265.412 2.49181C300.019 -4.89934 335.933 6.81268 359.53 33.1844L407.803 87.1351L456.296 140.887C480.001 167.162 487.815 204.121 476.774 237.742L454.188 306.523L431.884 375.396C420.982 409.061 392.882 434.308 358.245 441.557L287.386 456.387L216.588 471.508C181.981 478.899 146.067 467.187 122.471 440.816L74.1979 386.865L25.7041 333.113C1.99986 306.838 -5.8144 269.879 5.226 236.258L27.8123 167.477L50.1162 98.6044C61.0186 64.9386 89.1187 39.6918 123.755 32.4427L194.615 17.6125L265.412 2.49181Z" fill="#101010"/>
</svg>
