<svg width="1744" height="700" viewBox="0 0 1744 700" fill="none" xmlns="http://www.w3.org/2000/svg">
<path opacity="0.04" d="M1281.99 -18.3688L1282 -18.3633L1282 -18.3577L1436.35 152.733C1472.87 193.213 1484.91 250.154 1467.9 301.951L1396.01 520.878L1396.01 520.885L1396.01 520.892L1325.02 740.111C1308.22 791.978 1264.93 830.875 1211.56 842.043L986.022 889.247L986.015 889.248L986.008 889.25L760.662 937.378C707.345 948.765 652.014 930.721 615.66 890.092L462.01 718.369L462.005 718.364L462 718.358L307.647 547.267C271.127 506.787 259.088 449.847 276.097 398.049L347.988 179.123L347.99 179.116L347.993 179.109L418.985 -40.1107C435.782 -91.9779 479.074 -130.874 532.437 -142.042L757.978 -189.246L757.986 -189.248L757.993 -189.249L983.339 -237.378C1036.66 -248.765 1091.99 -230.721 1128.34 -190.091L1281.99 -18.3688Z" stroke="#EB5BE5" stroke-width="7.28036"/>
<path opacity="0.04" d="M1457.3 -175.874L1457.31 -175.869L1702.21 95.5886C1739.17 136.553 1751.35 194.176 1734.14 246.594L1620.07 593.949L1620.07 593.956L1507.43 941.775C1490.43 994.263 1446.62 1033.63 1392.62 1044.93L1034.77 1119.82L1034.76 1119.82L677.223 1196.19C623.268 1207.71 567.274 1189.45 530.485 1148.33L286.699 875.874L286.694 875.868L41.7927 604.41C4.8354 563.446 -7.34787 505.823 9.86518 453.405L123.929 106.05L123.932 106.043L236.57 -241.776C253.568 -294.264 297.379 -333.627 351.381 -344.929L709.231 -419.823L709.238 -419.825L1066.78 -496.187C1120.73 -507.71 1176.73 -489.45 1213.52 -448.334L1457.3 -175.874Z" stroke="#EB5BE5" stroke-width="3.64018"/>
<path opacity="0.2" d="M124.03 106.757L235.619 -240.849C252.752 -294.221 297.265 -334.254 352.148 -345.651L710.576 -420.083" stroke="#EB5BE5" stroke-width="3.64018"/>
<circle cx="279.951" cy="449.076" r="136.344" fill="#151515" stroke="#1A171A" stroke-width="6.992"/>
<circle cx="385.395" cy="39.193" r="87.3643" fill="#151515" stroke="#1A171A" stroke-width="7.28036"/>
<circle cx="1331.45" cy="691.961" r="90.7566" fill="#151515" stroke="#1A171A" stroke-width="6.66104"/>
<circle cx="1477.05" cy="164.312" r="147.066" fill="#151515" stroke="#1A171A" stroke-width="6.72304"/>
<path opacity="0.2" d="M1480.37 311.423C1397.29 311.423 1329.94 244.074 1329.94 160.995" stroke="#EB5BE5" stroke-width="6.72304"/>
</svg>
